<svg width="49" height="52" viewBox="0 0 49 52" fill="none" xmlns="http://www.w3.org/2000/svg">
<path d="M16.0246 6.83592C17.5234 3.85648 21.4046 3.04642 23.97 5.1776L27.9063 8.44761C28.9162 9.28662 30.2069 9.71124 31.5177 9.63574L36.6266 9.3415C39.9562 9.14973 42.5983 12.1059 42.0354 15.3932L41.1716 20.4371C40.95 21.7313 41.2276 23.0613 41.9484 24.1588L44.7576 28.4361C46.5885 31.2238 45.3495 34.99 42.2211 36.1461L37.4211 37.92C36.1895 38.3752 35.1764 39.2806 34.5864 40.4535L32.2868 45.0251C30.788 48.0045 26.9069 48.8146 24.3414 46.6834L20.4052 43.4134C19.3952 42.5744 18.1046 42.1498 16.7937 42.2253L11.6849 42.5195C8.35521 42.7113 5.71308 39.7551 6.27604 36.4678L7.13981 31.4239C7.36144 30.1297 7.08384 28.7997 6.36305 27.7022L3.55379 23.4249C1.72289 20.6372 2.96194 16.871 6.09031 15.7149L10.8904 13.941C12.1219 13.4858 13.135 12.5804 13.725 11.4075L16.0246 6.83592Z" fill="#53DBAA"/>
<path d="M21.6463 22.7555C21.9119 24.5109 21.2643 26.0645 20.1999 26.2256C19.1354 26.3866 18.0571 25.0942 17.7915 23.3388C17.5259 21.5834 18.1735 20.0298 19.2379 19.8687C20.3024 19.7077 21.3807 21.0001 21.6463 22.7555Z" fill="black"/>
<path d="M29.4344 21.6898C29.7 23.4452 29.0524 24.9988 27.988 25.1599C26.9235 25.321 25.8452 24.0285 25.5796 22.2731C25.314 20.5177 25.9616 18.9641 27.026 18.8031C28.0905 18.642 29.1688 19.9344 29.4344 21.6898Z" fill="black"/>
<path fill-rule="evenodd" clip-rule="evenodd" d="M33.148 23.7463C33.5751 23.8365 33.8483 24.2559 33.7581 24.683L32.9847 24.5197C33.7581 24.683 33.758 24.6833 33.7579 24.6837L33.7573 24.6868L33.7559 24.6932C33.7548 24.6983 33.7532 24.7052 33.7513 24.7138C33.7475 24.731 33.742 24.7549 33.7347 24.7851C33.7203 24.8456 33.6989 24.9314 33.6696 25.0391C33.6113 25.2545 33.5216 25.5585 33.394 25.9236C33.1395 26.6516 32.7303 27.6337 32.1106 28.6436C30.8734 30.6598 28.7424 32.8647 25.2794 33.2532C21.9191 33.6301 19.2195 32.5322 17.3773 31.3571C16.4564 30.7697 15.7431 30.1591 15.258 29.6934C15.0151 29.4601 14.8283 29.2621 14.7002 29.1199C14.6361 29.0488 14.5866 28.9915 14.5521 28.9507C14.5348 28.9302 14.5212 28.9139 14.5114 28.902C14.5065 28.896 14.5026 28.8911 14.4996 28.8874L14.4958 28.8827L14.4944 28.881L14.4938 28.8803C14.4936 28.88 14.4934 28.8797 15.0904 28.4034L14.4934 28.8797C14.2211 28.5385 14.2771 28.0411 14.6183 27.7689C14.9592 27.497 15.4557 27.5525 15.7282 27.8926C15.7285 27.893 15.7288 27.8934 15.7291 27.8938L15.1112 28.3868C15.7291 27.8938 15.7289 27.8936 15.7287 27.8934L15.7333 27.899C15.7383 27.9051 15.747 27.9155 15.7592 27.93C15.7836 27.9588 15.8222 28.0036 15.8747 28.0619C15.9798 28.1786 16.1401 28.3488 16.3528 28.5531C16.779 28.9623 17.4113 29.5037 18.2275 30.0244C19.8594 31.0654 22.1998 32.0079 25.1032 31.6822C27.904 31.368 29.6697 29.5989 30.7632 27.8168C31.3089 26.9276 31.6736 26.0544 31.9017 25.402C32.0154 25.0768 32.0941 24.8092 32.1439 24.6257C32.1687 24.534 32.1863 24.4634 32.1973 24.4174C32.2028 24.3944 32.2066 24.3775 32.209 24.3672L32.2113 24.3567L32.2114 24.3564" fill="black"/>
</svg>
