<svg width="70" height="33" viewBox="0 0 70 33" fill="none" xmlns="http://www.w3.org/2000/svg">
<path d="M12.0696 25.1437C9.13507 25.1437 6.79501 24.7263 5.04945 23.8914C3.32919 23.0566 2.07694 21.855 1.2927 20.2865C0.533766 18.718 0.154297 16.846 0.154297 14.6703C0.154297 11.9129 0.685554 9.57281 1.74807 7.65016C2.83588 5.70222 4.31581 4.20964 6.18786 3.17243C8.0852 2.13521 10.2355 1.6166 12.6388 1.6166C15.4975 1.6166 17.5846 2.2364 18.9001 3.476C20.2156 4.6903 20.8733 6.29672 20.8733 8.29526C20.8733 9.88903 20.4432 11.2678 19.5831 12.4315C18.7483 13.5952 17.5846 14.4933 16.092 15.1257C14.5994 15.7329 12.8792 16.0364 10.9312 16.0364C9.894 16.0364 8.89474 15.9352 7.93341 15.7329C6.99739 15.5052 6.14991 15.2016 5.39097 14.8221L6.3017 12.9627C6.2258 13.5699 6.18786 14.177 6.18786 14.7842C6.18786 16.3021 6.68117 17.3899 7.66779 18.0476C8.65441 18.6801 10.0458 18.9963 11.8419 18.9963C13.3598 18.9963 14.5994 18.8572 15.5607 18.5789C16.5221 18.2753 17.3442 17.9844 18.0273 17.7061C18.7103 17.4278 19.3681 17.2887 20.0005 17.2887C20.4053 17.2887 20.7848 17.4025 21.1389 17.6302C21.5184 17.8326 21.822 18.1362 22.0497 18.5409C22.3026 18.9457 22.4291 19.4517 22.4291 20.0588C22.4291 20.9695 22.037 21.817 21.2528 22.6012C20.4685 23.3602 19.3048 23.98 17.7617 24.4606C16.2185 24.916 14.3211 25.1437 12.0696 25.1437ZM9.86871 12.3935C11.4372 12.3935 12.7274 12.052 13.7393 11.369C14.7512 10.6606 15.2572 9.80049 15.2572 8.78857C15.2572 8.05493 14.9915 7.44778 14.4603 6.96712C13.9543 6.46116 13.1701 6.20818 12.1076 6.20818C11.0957 6.20818 10.1596 6.41056 9.2995 6.81533C8.46467 7.1948 7.79428 7.70076 7.28832 8.33321C6.80766 8.94036 6.56733 9.61075 6.56733 10.3444C6.56733 11.0021 6.85825 11.5081 7.44011 11.8623C8.02196 12.2164 8.83149 12.3935 9.86871 12.3935Z" fill="white"/>
<path d="M32.1717 23.7776C29.7937 23.7776 27.8837 22.8795 26.4417 21.0834C24.9997 19.2872 24.2788 16.555 24.2788 12.8868C24.2788 8.96566 24.9618 6.10699 26.3279 4.31084C27.7193 2.48938 29.604 1.57866 31.982 1.57866C33.3987 1.57866 34.6509 1.92018 35.7387 2.60322C36.8265 3.26097 37.7752 4.19699 38.5847 5.41129L38.1673 6.39792C38.0914 6.04375 38.0282 5.66428 37.9776 5.25951C37.927 4.85474 37.9017 4.55117 37.9017 4.34878C37.9017 3.23567 38.1167 2.37554 38.5468 1.76839C38.9769 1.16124 39.6473 0.857666 40.558 0.857666C41.5446 0.857666 42.3415 1.22449 42.9486 1.95813C43.5558 2.69177 43.9985 3.74163 44.2768 5.10772C44.5803 6.29672 44.8333 7.80195 45.0357 9.6234C45.2381 11.4449 45.3393 13.2916 45.3393 15.1637C45.3393 17.5923 45.2507 19.6287 45.0737 21.2731C44.8966 22.9175 44.6056 24.2836 44.2009 25.3714C43.7961 26.4592 43.2649 27.4079 42.6071 28.2174C41.494 29.5582 40.0267 30.5701 38.2053 31.2531C36.3838 31.9362 34.2967 32.2777 31.944 32.2777C30.2238 32.2777 28.845 32.1133 27.8078 31.7844C26.7959 31.4555 26.0623 31.0128 25.6069 30.4563C25.1515 29.8997 24.9238 29.2673 24.9238 28.5589C24.9238 27.7494 25.1262 27.079 25.531 26.5477C25.9358 26.0165 26.5556 25.7508 27.3904 25.7508C28.1493 25.7508 28.9842 25.8267 29.8949 25.9785C30.8309 26.1303 31.8808 26.2062 33.0445 26.2062C35.2454 26.2062 36.8012 25.7382 37.712 24.8022C38.6227 23.8661 39.078 22.5127 39.078 20.7418C39.078 20.16 39.0401 19.477 38.9642 18.6927L39.4955 18.6548C38.8377 20.2232 37.8764 21.4755 36.6115 22.4115C35.3466 23.3222 33.8667 23.7776 32.1717 23.7776ZM34.5624 18.4271C35.2454 18.4271 35.9158 18.2374 36.5736 17.8579C37.2313 17.4784 37.7626 16.8586 38.1673 15.9985C38.5974 15.1384 38.8124 13.9746 38.8124 12.5074C38.8124 10.7618 38.4456 9.34513 37.712 8.25732C36.9783 7.14421 35.8905 6.58765 34.4485 6.58765C33.2342 6.58765 32.3108 7.08096 31.6784 8.06758C31.0712 9.0289 30.7677 10.4962 30.7677 12.4694C30.7677 14.3415 31.0712 15.8088 31.6784 16.8713C32.3108 17.9085 33.2722 18.4271 34.5624 18.4271Z" fill="white"/>
<path d="M58.6922 24.954C56.5671 24.954 54.7077 24.5112 53.114 23.6258C51.5455 22.7151 50.3312 21.4249 49.4711 19.7552C48.6109 18.0856 48.1809 16.0997 48.1809 13.7976C48.1809 11.3943 48.6109 9.29453 49.4711 7.49838C50.3565 5.70222 51.5961 4.29819 53.1898 3.28627C54.8089 2.27435 56.681 1.76839 58.806 1.76839C61.0828 1.76839 63.056 2.2617 64.7257 3.24832C66.3954 4.20964 67.6856 5.56308 68.5963 7.30864C69.5323 9.0542 70.0003 11.0907 70.0003 13.4181C70.0003 15.7961 69.5323 17.8452 68.5963 19.5655C67.6603 21.2858 66.3448 22.6139 64.6498 23.5499C62.9802 24.4859 60.9943 24.954 58.6922 24.954ZM59.2234 18.7686C60.5642 18.7686 61.6267 18.2374 62.411 17.1748C63.1952 16.1123 63.5873 14.7083 63.5873 12.9627C63.5873 11.1919 63.1952 9.78784 62.411 8.75062C61.6267 7.68811 60.5642 7.15685 59.2234 7.15685C57.832 7.15685 56.7316 7.68811 55.922 8.75062C55.1378 9.78784 54.7457 11.1919 54.7457 12.9627C54.7457 14.7083 55.1378 16.1123 55.922 17.1748C56.7316 18.2374 57.832 18.7686 59.2234 18.7686Z" fill="white"/>
</svg>
