<svg width="14" height="19" viewBox="0 0 14 19" fill="none" xmlns="http://www.w3.org/2000/svg">
<mask id="path-1-inside-1_186_1550" fill="white">
<path d="M0 13.5C0 11.2909 1.79086 9.5 4 9.5H10C12.2091 9.5 14 11.2909 14 13.5V17.5C14 18.0523 13.5523 18.5 13 18.5H1C0.447716 18.5 0 18.0523 0 17.5V13.5Z"/>
</mask>
<path d="M0 13.5C0 11.2909 1.79086 9.5 4 9.5H10C12.2091 9.5 14 11.2909 14 13.5V17.5C14 18.0523 13.5523 18.5 13 18.5H1C0.447716 18.5 0 18.0523 0 17.5V13.5Z" stroke="black" stroke-width="3" mask="url(#path-1-inside-1_186_1550)"/>
<circle cx="7" cy="4.5" r="3.25" stroke="black" stroke-width="1.5"/>
</svg>
